<?xml version="1.0" encoding="utf-8"?>
<svg width="231px" height="198px" viewBox="0 0 231 198" version="1.1" xmlns:xlink="http://www.w3.org/1999/xlink" xmlns="http://www.w3.org/2000/svg">
  <defs>
    <path d="M231 0L231 0L231 198L0 198L0 0L231 0Z" id="path_1" />
    <path d="M0 78C0 34.9218 33.1309 0 74 0C114.869 0 148 34.9218 148 78C148 121.078 114.869 156 74 156C33.1309 156 0 121.078 0 78Z" id="path_2" />
    <path d="M148 63L231 198L65 198L148 63Z" id="path_3" />
    <clipPath id="clip_1">
      <use xlink:href="#path_1" clip-rule="evenodd" fill-rule="evenodd" />
    </clipPath>
    <clipPath id="clip_2">
      <use xlink:href="#path_2" />
    </clipPath>
    <clipPath id="clip_3">
      <use xlink:href="#path_3" />
    </clipPath>
  </defs>
  <g id="Frame">
    <path d="M231 0L231 0L231 198L0 198L0 0L231 0Z" id="Frame" fill="none" stroke="none" />
  </g>
  <g id="Oval">
    <use stroke="none" fill="#2DA8A0" fill-opacity="0.7" xlink:href="#path_2" fill-rule="evenodd" />
    <g clip-path="url(#clip_2)">
      <use xlink:href="#path_2" fill="none" stroke="#000000" stroke-opacity="0.7" stroke-width="2" />
    </g>
  </g>
  <g id="Triangle">
    <use stroke="none" fill="#512DA8" fill-opacity="0.7" xlink:href="#path_3" fill-rule="evenodd" />
    <g clip-path="url(#clip_3)">
      <use xlink:href="#path_3" fill="none" stroke="#000000" stroke-opacity="0.7" stroke-width="2" />
    </g>
  </g>
</svg>